<?xml version="1.0" encoding="UTF-8" standalone="no"?>
<!DOCTYPE svg PUBLIC "-//W3C//DTD SVG 1.1//EN" "http://www.w3.org/Graphics/SVG/1.1/DTD/svg11.dtd">
<svg width="100%" height="100%" viewBox="0 0 64 64" version="1.1" xmlns="http://www.w3.org/2000/svg" xmlns:xlink="http://www.w3.org/1999/xlink" xml:space="preserve" xmlns:serif="http://www.serif.com/" style="fill-rule:evenodd;clip-rule:evenodd;stroke-linejoin:round;stroke-miterlimit:2;">
    <g id="outline">
        <path d="M32,37C34.743,37 37,34.743 37,32C37,29.257 34.743,27 32,27C29.257,27 27,29.257 27,32C27.003,34.742 29.258,36.997 32,37ZM32,29C33.646,29 35,30.354 35,32C35,33.646 33.646,35 32,35C30.354,35 29,33.646 29,32C29,30.354 30.354,29 32,29Z" style="fill-rule:nonzero;"/>
        <path d="M6.019,45.006L6.519,45.872L8.251,44.872L7.751,44.006C6.63,42.064 8.742,37.546 13.918,32.379C16.222,34.492 18.672,36.439 21.25,38.207C21.417,40.274 21.666,42.268 21.985,44.165C20.985,44.465 19.985,44.735 19.032,44.951L18.057,45.171L18.497,47.122L19.473,46.902C20.407,46.692 21.373,46.429 22.347,46.144C24.234,55.5 27.9,62 32,62C35.821,62 39.259,56.354 41.238,48.023C42.881,48.523 44.55,48.93 46.238,49.243C47.839,49.546 49.463,49.708 51.092,49.726C54.558,49.726 56.946,48.8 57.985,47L58.485,46.134L56.753,45.134L56.253,46C55.28,47.687 51.579,48.174 46.592,47.274C44.931,46.965 43.288,46.56 41.673,46.063C42.318,42.78 42.725,39.455 42.893,36.114C44.665,34.889 46.333,33.614 47.886,32.321C49.124,33.407 50.307,34.554 51.43,35.759L52.108,36.493L53.578,35.137L52.9,34.4C51.852,33.265 50.679,32.128 49.417,31C51.069,29.542 52.618,27.972 54.054,26.3C58.059,21.563 59.454,17.552 57.985,15.005C56.516,12.458 52.341,11.663 46.238,12.762C44.39,13.108 42.564,13.565 40.771,14.132C38.739,6.822 35.532,2 32,2L31,2L31,4L32,4C34.2,4 36.995,7.923 38.883,14.746C35.809,15.832 32.814,17.129 29.919,18.628C28.144,17.85 26.386,17.168 24.666,16.584C24.931,15.445 25.217,14.338 25.541,13.297L25.841,12.343L23.932,11.743L23.632,12.698C23.309,13.737 23.022,14.839 22.756,15.97C21.117,15.471 19.451,15.064 17.766,14.752C11.666,13.652 7.489,14.452 6.019,16.995C4.219,20.119 6.94,25.463 12.488,30.995C6.94,36.538 4.216,41.882 6.019,45.006ZM42.983,33.6C42.994,33.07 43,32.537 43,32C43,30.767 42.968,29.551 42.911,28.352C44.111,29.219 45.255,30.102 46.343,31.003C45.277,31.883 44.157,32.749 42.983,33.6ZM46.588,14.731C51.576,13.831 55.276,14.322 56.249,16.006C57.222,17.69 55.794,21.141 52.522,25.006C51.092,26.672 49.545,28.234 47.893,29.68C46.298,28.349 44.566,27.05 42.751,25.798C42.498,22.522 42,19.27 41.261,16.069C43.008,15.515 44.787,15.068 46.588,14.731ZM23.372,39.617C24.386,40.268 25.429,40.905 26.5,41.526C26.882,41.747 27.267,41.95 27.651,42.163C26.379,42.685 25.124,43.147 23.887,43.563C23.683,42.309 23.511,40.994 23.372,39.617ZM32,60C29.429,60 26.045,54.64 24.248,45.554C26.097,44.941 27.993,44.207 29.904,43.37C32.95,44.95 36.107,46.304 39.351,47.422C37.483,55.37 34.39,60 32,60ZM39.771,45.457C37.194,44.562 34.674,43.51 32.226,42.306C33.994,41.458 35.761,40.536 37.5,39.532C38.632,38.879 39.728,38.196 40.806,37.502C40.624,40.172 40.278,42.829 39.771,45.457ZM39.378,16.692C39.959,19.229 40.377,21.801 40.629,24.392C39.605,23.735 38.566,23.092 37.5,22.475C35.754,21.467 33.992,20.541 32.235,19.696C34.556,18.558 36.941,17.555 39.378,16.692ZM24.247,18.549C25.363,18.932 26.5,19.376 27.647,19.849C27.265,20.061 26.882,20.263 26.502,20.482C25.524,21.047 24.57,21.626 23.641,22.219C23.808,20.958 24.015,19.738 24.247,18.549ZM23.347,24.8C24.659,23.929 26.029,23.062 27.501,22.212C28.319,21.74 29.14,21.286 29.963,20.849C32.137,21.836 34.33,22.949 36.501,24.206C37.988,25.065 39.438,25.969 40.835,26.906C40.94,28.536 41,30.233 41,32C41,33.032 40.981,34.04 40.942,35.025C39.516,35.983 38.035,36.914 36.5,37.8C34.346,39.044 32.15,40.169 29.967,41.16C29.143,40.72 28.321,40.265 27.5,39.794C25.961,38.906 24.53,37.999 23.166,37.087C23.06,35.459 23,33.765 23,32C23,29.56 23.121,27.144 23.346,24.8L23.347,24.8ZM21.088,35.646C19.087,34.213 17.174,32.662 15.359,31C17.213,29.304 19.17,27.722 21.217,26.265C21.078,28.151 21,30.068 21,32C21,33.232 21.032,34.447 21.088,35.646ZM7.751,18C8.725,16.314 12.426,15.827 17.412,16.726C19.073,17.034 20.715,17.439 22.33,17.937C21.966,19.766 21.673,21.679 21.457,23.654C18.803,25.461 16.284,27.457 13.918,29.627C8.742,24.459 6.63,19.941 7.751,18Z" style="fill:rgb(11,0,252);fill-rule:nonzero;"/>
        <path d="M9.784,46.722C9.784,48.368 11.138,49.722 12.784,49.722C14.43,49.722 15.784,48.368 15.784,46.722C15.784,45.076 14.43,43.722 12.784,43.722C11.138,43.722 9.784,45.076 9.784,46.722ZM13.784,46.722C13.784,47.271 13.333,47.722 12.784,47.722C12.235,47.722 11.784,47.271 11.784,46.722C11.784,46.173 12.235,45.722 12.784,45.722C13.333,45.722 13.784,46.173 13.784,46.722Z" style="fill-rule:nonzero;"/>
        <path d="M53.085,40.284C53.085,41.93 54.439,43.284 56.085,43.284C57.731,43.284 59.085,41.93 59.085,40.284C59.085,38.638 57.731,37.284 56.085,37.284C54.439,37.284 53.085,38.638 53.085,40.284ZM57.085,40.284C57.085,40.833 56.634,41.284 56.085,41.284C55.536,41.284 55.085,40.833 55.085,40.284C55.085,39.735 55.536,39.284 56.085,39.284C56.634,39.284 57.085,39.735 57.085,40.284Z" style="fill-rule:nonzero;"/>
        <path d="M30.132,7C30.132,5.354 28.778,4 27.132,4C25.486,4 24.132,5.354 24.132,7C24.132,8.646 25.486,10 27.132,10C28.778,10 30.132,8.646 30.132,7ZM26.132,7C26.132,6.451 26.583,6 27.132,6C27.681,6 28.132,6.451 28.132,7C28.132,7.549 27.681,8 27.132,8C26.583,8 26.132,7.549 26.132,7Z" style="fill-rule:nonzero;"/>
    </g>
</svg>
