<?xml version="1.0" encoding="UTF-8" standalone="no"?> <svg xmlns="http://www.w3.org/2000/svg" viewBox="0 0 64 64"><g id="outline"><path d="M32,37a5,5,0,1,0-5-5A5.006,5.006,0,0,0,32,37Zm0-8a3,3,0,1,1-3,3A3,3,0,0,1,32,29Z"/><path d="M6.019,45.006l.5.866,1.732-1-.5-.866c-1.121-1.942.991-6.46,6.167-11.627a66.413,66.413,0,0,0,7.332,5.828c.167,2.067.416,4.061.735,5.958-1,.3-2,.57-2.953.786l-.975.22.44,1.951.976-.22c.934-.21,1.9-.473,2.874-.758C24.234,55.5,27.9,62,32,62c3.821,0,7.259-5.646,9.238-13.977a45.906,45.906,0,0,0,5,1.22,27.733,27.733,0,0,0,4.854.483c3.466,0,5.854-.926,6.893-2.726l.5-.866-1.732-1-.5.866c-.973,1.687-4.674,2.174-9.661,1.274a44.167,44.167,0,0,1-4.919-1.211,69.789,69.789,0,0,0,1.22-9.949c1.772-1.225,3.44-2.5,4.993-3.793a48.985,48.985,0,0,1,3.544,3.438l.678.734,1.47-1.356L52.9,34.4c-1.048-1.135-2.221-2.272-3.483-3.4a47.853,47.853,0,0,0,4.637-4.7c4.005-4.737,5.4-8.748,3.931-11.295s-5.644-3.342-11.747-2.243a46.524,46.524,0,0,0-5.467,1.37C38.739,6.822,35.532,2,32,2H31V4h1c2.2,0,4.995,3.923,6.883,10.746a70.705,70.705,0,0,0-8.964,3.882c-1.775-.778-3.533-1.46-5.253-2.044.265-1.139.551-2.246.875-3.287l.3-.954-1.909-.6-.3.955c-.323,1.039-.61,2.141-.876,3.272a45.789,45.789,0,0,0-4.99-1.218c-6.1-1.1-10.277-.3-11.747,2.243-1.8,3.124.921,8.468,6.469,14C6.94,36.538,4.216,41.882,6.019,45.006ZM42.983,33.6Q43,32.805,43,32c0-1.233-.032-2.449-.089-3.648q1.8,1.3,3.432,2.651Q44.744,32.323,42.983,33.6Zm3.605-18.869c4.988-.9,8.688-.409,9.661,1.275s-.455,5.135-3.727,9a46.164,46.164,0,0,1-4.629,4.674c-1.595-1.331-3.327-2.63-5.142-3.882a65.8,65.8,0,0,0-1.49-9.729A44.92,44.92,0,0,1,46.588,14.731ZM23.372,39.617q1.521.977,3.128,1.909c.382.221.767.424,1.151.637-1.272.522-2.527.984-3.764,1.4Q23.581,41.682,23.372,39.617ZM32,60c-2.571,0-5.955-5.36-7.752-14.446,1.849-.613,3.745-1.347,5.656-2.184a70.083,70.083,0,0,0,9.447,4.052C37.483,55.37,34.39,60,32,60Zm7.771-14.543a66.761,66.761,0,0,1-7.545-3.151c1.768-.848,3.535-1.77,5.274-2.774,1.132-.653,2.228-1.336,3.306-2.03A65.6,65.6,0,0,1,39.771,45.457Zm-.393-28.765a60.815,60.815,0,0,1,1.251,7.7c-1.024-.657-2.063-1.3-3.129-1.917-1.746-1.008-3.508-1.934-5.265-2.779A67.219,67.219,0,0,1,39.378,16.692ZM24.247,18.549c1.116.383,2.253.827,3.4,1.3-.382.212-.765.414-1.145.633q-1.467.848-2.861,1.737C23.808,20.958,24.015,19.738,24.247,18.549Zm-.9,6.251c1.312-.871,2.682-1.738,4.154-2.588q1.227-.708,2.462-1.363c2.174.987,4.367,2.1,6.538,3.357,1.487.859,2.937,1.763,4.334,2.7C40.94,28.536,41,30.233,41,32q0,1.548-.058,3.025c-1.426.958-2.907,1.889-4.442,2.775-2.154,1.244-4.35,2.369-6.533,3.36Q28.731,40.5,27.5,39.794c-1.539-.888-2.97-1.795-4.334-2.707C23.06,35.459,23,33.765,23,32,23,29.56,23.121,27.144,23.346,24.8ZM21.088,35.646A61.615,61.615,0,0,1,15.359,31a61.63,61.63,0,0,1,5.858-4.735C21.078,28.151,21,30.068,21,32,21,33.232,21.032,34.447,21.088,35.646ZM7.751,18c.974-1.686,4.675-2.173,9.661-1.274a43.768,43.768,0,0,1,4.918,1.211c-.364,1.829-.657,3.742-.873,5.717a66.588,66.588,0,0,0-7.539,5.973C8.742,24.459,6.63,19.941,7.751,18Z"/><path d="M9.784,46.722a3,3,0,1,0,3-3A3,3,0,0,0,9.784,46.722Zm4,0a1,1,0,1,1-1-1A1,1,0,0,1,13.784,46.722Z"/><path d="M53.085,40.284a3,3,0,1,0,3-3A3,3,0,0,0,53.085,40.284Zm4,0a1,1,0,1,1-1-1A1,1,0,0,1,57.085,40.284Z"/><path d="M30.132,7a3,3,0,1,0-3,3A3,3,0,0,0,30.132,7Zm-4,0a1,1,0,1,1,1,1A1,1,0,0,1,26.132,7Z"/></g></svg>
