<?xml version="1.0" encoding="UTF-8" standalone="no"?>
<!DOCTYPE svg PUBLIC "-//W3C//DTD SVG 1.1//EN" "http://www.w3.org/Graphics/SVG/1.1/DTD/svg11.dtd">
<svg width="100%" height="100%" viewBox="0 0 60 60" version="1.1" xmlns="http://www.w3.org/2000/svg" xmlns:xlink="http://www.w3.org/1999/xlink" xml:space="preserve" xmlns:serif="http://www.serif.com/" style="fill-rule:evenodd;clip-rule:evenodd;stroke-linejoin:round;stroke-miterlimit:2;">
    <g>
        <path d="M55.201,15.5L46.677,15.5L42.677,5.5L17.323,5.5L13.323,15.5L12,15.5L12,10.5L6,10.5L6,15.5L4.799,15.5C2.152,15.5 0,17.652 0,20.299L0,49.667C0,52.332 2.168,54.5 4.833,54.5L55.167,54.5C57.832,54.5 60,52.332 60,49.667L60,20.299C60,17.652 57.848,15.5 55.201,15.5ZM8,12.5L10,12.5L10,15.5L8,15.5L8,12.5ZM58,49.667C58,51.23 56.729,52.5 55.167,52.5L4.833,52.5C3.271,52.5 2,51.229 2,49.667L2,20.299C2,18.756 3.256,17.5 4.799,17.5L14.677,17.5L18.677,7.5L41.323,7.5L45.323,17.5L55.201,17.5C56.744,17.5 58,18.756 58,20.299L58,49.667Z" style="fill:rgb(11,0,252);fill-rule:nonzero;"/>
        <path d="M30,14.5C20.075,14.5 12,22.575 12,32.5C12,42.425 20.075,50.5 30,50.5C39.925,50.5 48,42.425 48,32.5C48,22.575 39.925,14.5 30,14.5ZM30,48.5C21.178,48.5 14,41.322 14,32.5C14,23.678 21.178,16.5 30,16.5C38.822,16.5 46,23.678 46,32.5C46,41.322 38.822,48.5 30,48.5Z" style="fill:rgb(11,0,252);fill-rule:nonzero;"/>
        <path d="M30,20.5C23.383,20.5 18,25.883 18,32.5C18,39.117 23.383,44.5 30,44.5C36.617,44.5 42,39.117 42,32.5C42,25.883 36.617,20.5 30,20.5ZM30,42.5C24.486,42.5 20,38.014 20,32.5C20,26.986 24.486,22.5 30,22.5C35.514,22.5 40,26.986 40,32.5C40,38.014 35.514,42.5 30,42.5Z" style="fill:rgb(11,0,252);fill-rule:nonzero;"/>
        <path d="M52,19.5C49.794,19.5 48,21.294 48,23.5C48,25.706 49.794,27.5 52,27.5C54.206,27.5 56,25.706 56,23.5C56,21.294 54.206,19.5 52,19.5ZM52,25.5C50.897,25.5 50,24.603 50,23.5C50,22.397 50.897,21.5 52,21.5C53.103,21.5 54,22.397 54,23.5C54,24.603 53.103,25.5 52,25.5Z" style="fill:rgb(11,0,252);fill-rule:nonzero;"/>
    </g>
</svg>
