<?xml version="1.0" encoding="UTF-8" standalone="no"?>
<!DOCTYPE svg PUBLIC "-//W3C//DTD SVG 1.1//EN" "http://www.w3.org/Graphics/SVG/1.1/DTD/svg11.dtd">
<svg width="100%" height="100%" viewBox="0 0 64 64" version="1.1" xmlns="http://www.w3.org/2000/svg" xmlns:xlink="http://www.w3.org/1999/xlink" xml:space="preserve" xmlns:serif="http://www.serif.com/" style="fill-rule:evenodd;clip-rule:evenodd;stroke-linejoin:round;stroke-miterlimit:2;">
    <g id="Layer_93">
        <path d="M58.88,29.12L32.88,3.12C32.647,2.886 32.33,2.754 32,2.754C31.67,2.754 31.353,2.886 31.12,3.12L5.12,29.12C4.882,29.351 4.749,29.669 4.75,30L4.75,57C4.694,59.259 6.492,61.169 8.75,61.25L55.21,61.25C57.468,61.169 59.266,59.259 59.21,57L59.21,30C59.222,29.674 59.103,29.357 58.88,29.12ZM24.25,58.75L24.25,40C24.255,39.042 25.042,38.255 26,38.25L38,38.25C38.958,38.255 39.745,39.042 39.75,40L39.75,58.75L24.25,58.75ZM56.75,57C56.801,57.9 56.11,58.686 55.21,58.75L42.21,58.75L42.21,40C42.205,37.686 40.314,35.777 38,35.75L26,35.75C23.671,35.755 21.755,37.671 21.75,40L21.75,58.75L8.75,58.75C7.866,58.666 7.198,57.887 7.25,57L7.25,30.52L32,5.77L56.75,30.52L56.75,57Z" style="fill:rgb(11,0,252);fill-rule:nonzero;"/>
    </g>
</svg>
